<?xml version="1.0" encoding="UTF-8"?>
<svg id="Calque_2" data-name="Calque 2" xmlns="http://www.w3.org/2000/svg" viewBox="0 0 432.7 343.65">
  <defs>
    <style>
      .cls-1 {
        fill: #41495a;
        stroke-width: 0px;
      }
    </style>
  </defs>
  <g id="Calque_1-2" data-name="Calque 1">
    <g>
      <polygon class="cls-1" points="197.74 187.97 234.66 187.97 240.2 177.19 203.63 177.19 209.28 164.98 264.2 164.98 272.74 148.45 190.47 148.45 155.28 216.72 237.66 216.72 246.09 200.19 191.28 200.19 197.74 187.97"/>
      <polygon class="cls-1" points="134.64 148.45 119.63 180.51 97.28 148.45 75.02 148.45 43.45 215.95 68.29 215.95 83.2 183.89 105.56 215.95 127.92 215.95 159.38 148.45 134.64 148.45"/>
      <polygon class="cls-1" points="354.88 188.69 338.54 188.69 358.82 148.45 339.11 148.45 318.83 188.69 302.48 188.69 322.77 148.45 303.05 148.45 272.74 208.81 278.71 216.72 296.63 216.72 319.5 203.78 329.19 216.72 347.11 216.72 366.04 205.94 394.88 148.45 375.16 148.45 354.88 188.69"/>
      <path class="cls-1" d="m0,0v343.65h432.7V0H0Zm378.05,222.81l-27.23,19.45h-31.73l-6.81-11.43-15.93,11.43h-31.73l-8.25-13.78-5.49,13.78H98.04l-16.05-26.63-10.58,26.63H12.44l48.15-120.12h43.28l16.05,26.63,10.7-26.63h287.79l-40.37,100.67Z"/>
    </g>
  </g>
</svg>