<?xml version="1.0" encoding="utf-8"?>
<!-- Generator: Adobe Illustrator 25.2.0, SVG Export Plug-In . SVG Version: 6.00 Build 0)  -->
<svg version="1.1" id="Calque_1" xmlns="http://www.w3.org/2000/svg" xmlns:xlink="http://www.w3.org/1999/xlink" x="0px" y="0px"
	 viewBox="0 0 1171.6 1171.6" style="enable-background:new 0 0 1171.6 1171.6;" xml:space="preserve">
<style type="text/css">
	.st0{fill:#C54B5D;}
	.st1{fill:#F7C35C;}
	.st2{fill:#F2A850;}
	.st3{fill:#FDD17A;}
	.st4{fill:#9F3C4F;}
	.st5{fill:#833043;}
	.st6{fill:#C12D48;}
	.st7{fill:#7C0931;}
</style>
<path class="st0" d="M535.2,951l-12.9,0.3c-6.2-3.3-12.3-5.7-17.8,1.2c-46.4,3.9-92.8,7.7-139.2,11.8c-9.5,0.8-18.8,2.9-28.2,4.4
	l-2.3,0.1c-49.9,6.9-98.7,18.1-145.4,37.5c-0.8-4.2-2.1-8.3-2.2-12.4c-0.2-55.6-0.4-111.2-0.4-166.8v0.5c0.9-3.7,2.4-7.4,2.4-11.1
	c0.2-19.7,0.2-39.3,0-59c0-3.8-1.2-7.6-1.8-11.5c1.8-16.5,11.5-26.3,26.7-31.5c49.2-16.7,99.9-26.2,151.2-32.7
	c24.7-3.2,49.5-6.1,74.4-7.8c81.7-5.5,163.4-7.6,245.2-2.6c67.7,4.1,135.3,10.2,201.6,25.7c21.4,5,42.5,11.2,63.5,17.7
	c14.8,4.6,23.9,15.1,25.6,31.1c-0.6,2-1.8,4-1.8,6c-0.1,22.9-0.1,45.9,0,68.8c0,2.2,1.6,4.5,2.4,6.7l0-0.4
	c-0.1,55.6-0.2,111.2-0.4,166.8c0,4.2-1.4,8.3-2.2,12.4c-20.3-6.9-40.3-15.2-61.1-20.3c-27.8-7-56.2-11.5-84.3-17.1l-2.3-0.1
	c-37.5-4.3-75-9-112.6-12.8c-19-1.9-38.1-2.4-57.1-3.5l-2.5-2.9c-0.5,0.9-1.1,1.8-1.6,2.7l-7-0.5l-8.8-0.3l-8.6-0.2
	c-2.3-0.8-4.6-2.2-6.9-2.2c-26.3-0.1-52.5-0.1-78.8,0C539.8,948.9,537.5,950.3,535.2,951z"/>
<path class="st1" d="M407.5,127.7l81.6,57.9c5.3,3.8,10.7,7.5,16.9,11.9l48.6-83.1c18.2,9,36.1,13,53.3-2.1c16,28,31.9,56,48.6,85.3
	l99-69.8c11.6,7.3,22.8,15.6,37.8,13.5c4.5,37.3,9,74.5,13.7,113l109.5-26.8c2.3,1.5,4.6,3.2,6.7,5c7.3,6.8,14.4,13.8,21.5,20.7
	c-14.4,40.2-28.8,80.5-43.3,120.7c-1.5,4.1-3.2,8.2-4.8,12.2H266.3l-43.9-121.7c-1.4-3.8-2.8-7.5-4.2-11.3
	c11.3-6,19.7-14.6,24.4-26.5L356,254.1c4.6-38.2,9.1-75.5,13.7-112.9C384.6,143.3,395.9,135.1,407.5,127.7z"/>
<path class="st2" d="M864.2,480.4c5.9,0,11.8,0,17.6,0.1c21.9,0.4,37.5,15.3,38.3,37.2c0.5,11.7,0.3,23.5,0.1,35.3
	c-0.4,24.9-16,40.3-41,40.4c-125.5,0.1-250.9,0.1-376.4,0h-208c-4.4,0-8.8,0.1-13.2-0.1c-23-0.7-38.3-16.2-38.9-39.3
	c-0.2-11.4-0.1-22.8,0-34.2c0.3-23.6,15.9-39,39.5-39.4c5.5-0.1,11-0.1,16.5-0.1c3.7,0.1,7.3,0.4,11,0.4c110.7,0,221.5,0,332.2,0
	C716.1,480.7,790.2,480.6,864.2,480.4z"/>
<path class="st3" d="M864.2,480.4c-74.1,0.1-148.1,0.2-222.2,0.4c-110.7,0.1-221.5,0.1-332.2,0c-3.7,0-7.3-0.2-11-0.4
	c-9.7-27.3-19.4-54.5-29-81.8c-1.5-4.1-2.3-8.4-3.4-12.6h630.5c-8.6,24.9-17.1,49.8-25.7,74.7C868.9,467.3,866.5,473.9,864.2,480.4z
	"/>
<path class="st4" d="M973.7,1006.2c0.8-4.1,2.2-8.3,2.2-12.4c0.2-55.6,0.4-111.2,0.4-166.8c42.1,11.1,84.4,21.7,126.2,33.6
	c25.4,7.2,31.8,29.8,15.4,50.6c-19,24.2-38.1,48.5-57.5,72.4c-4.2,5.2-4.9,9.1-1.5,15.3c17,31.2,33.1,63,49.9,94.3
	c6.7,12.4,8.6,24.4-0.8,35.9s-21.8,11.8-35,7.4c-68.6-23.1-138.8-39.2-210.4-49.5c-8.2-1.2-15.8-6.5-23.7-9.9
	c41.8-20.9,83.7-41.8,125.4-62.9C967.8,1012.2,970.5,1008.8,973.7,1006.2z"/>
<path class="st4" d="M186.8,826.9c0.1,55.6,0.2,111.2,0.4,166.8c0,4.1,1.4,8.3,2.2,12.4c3.1,2.7,5.9,6.1,9.5,7.9
	c41.7,21.1,83.5,42.1,125.4,62.9c-10.8,11.1-25.5,10.4-38.9,12.4c-66.7,10.1-132.3,25.9-196.3,47.2c-12.1,4-23.2,3.4-32.6-6
	s-10.3-21.8-3.1-35.6c16.8-32.2,33.5-64.4,50.8-96.3c3.4-6.2,2.8-10-1.5-15.3c-19.4-23.9-38.6-48.1-57.5-72.5
	c-16.5-21.1-10.1-43.3,15.4-50.5C102.5,848.7,144.8,838,186.8,826.9z"/>
<path class="st5" d="M973.7,1006.2c-3.1,2.7-5.9,6.1-9.5,7.9c-41.7,21.1-83.6,42-125.4,62.9c-8.4-6.1-12.4-14.3-12.4-24.6
	c0.6-3.5,1.8-6.9,1.8-10.4c0.1-24.4,0-48.8,0-73.2c28.1,5.6,56.5,10.2,84.3,17.1C933.3,991,953.3,999.3,973.7,1006.2z"/>
<path class="st5" d="M324.3,1077c-41.8-20.9-83.6-41.9-125.4-62.9c-3.6-1.8-6.3-5.2-9.5-7.9c46.7-19.3,95.5-30.6,145.4-37.4
	c0,22.9-0.1,45.9,0,68.8c0,4.9,1.1,9.9,1.7,14.8C336.7,1062.6,332.5,1070.8,324.3,1077z"/>
<path class="st2" d="M793.4,141.2c-15,2.2-26.2-6.2-37.8-13.5c-0.5-2.8-0.7-5.7-1.6-8.3c-8.2-22.4,1-44.1,21.8-51.2
	c19.5-7,40.9,3.2,47.9,22.7c0.2,0.5,0.3,0.9,0.5,1.4c6.8,20.9-4.8,41.5-27.5,48.3C795.6,140.9,794.5,141.1,793.4,141.2z"/>
<path class="st2" d="M407.5,127.7c-11.6,7.4-22.9,15.6-37.8,13.5c-20.8-5.1-32.5-18.4-32.7-37c-0.2-17.1,11.1-32.1,27.6-36.6
	c14.4-4.1,27-0.3,37.2,10s12.6,23.5,8.8,37.7C409.4,119.4,408.5,123.5,407.5,127.7z"/>
<path class="st2" d="M608,112.3c-17.2,15.1-35.2,11.1-53.3,2.1c-1.7-3.1-3.3-6.4-5.1-9.4c-11.6-19.2-5-44.9,15.1-53.5
	c13.8-6,34.4-4.7,45.4,8.7c11.3,13.4,12.1,32.7,2,47C610.8,108.9,609.4,110.6,608,112.3z"/>
<path class="st2" d="M944.8,253.1c-7.2-6.9-14.3-13.9-21.5-20.7c-2.1-1.8-4.4-3.5-6.7-5c1.3-3.7,3.6-7.4,3.6-11.1
	c0.5-27.8,25.4-43.2,51.6-34.1c17.2,6,26,24.1,22.3,42.6c-3.4,17.2-18.2,29.3-36.2,29.3C953.6,254.1,949.2,253.4,944.8,253.1z"/>
<path class="st2" d="M242.7,226.5c-4.7,12-13.1,20.6-24.4,26.5c-18.8,3.2-35.4,0.3-45.6-18c-10.8-19.4-1-51.4,27.1-54.7
	C228.7,176.9,246.9,198.9,242.7,226.5z"/>
<path class="st6" d="M535.2,951c2.3-0.8,4.6-2.2,6.9-2.2c26.3-0.1,52.5-0.1,78.8,0c2.3,0,4.6,1.4,6.9,2.2L535.2,951z"/>
<path class="st7" d="M336.6,1052.3c-0.6-4.9-1.7-9.9-1.7-14.8c-0.2-22.9,0-45.9,0-68.8l2.3-0.1
	C336.9,996.5,336.7,1024.4,336.6,1052.3z"/>
<path class="st7" d="M828.2,968.7c0,24.4,0.1,48.8,0,73.2c0,3.5-1.2,6.9-1.8,10.4l-0.5-83.7L828.2,968.7z"/>
<path class="st6" d="M187.5,745.8c0.6,3.8,1.8,7.6,1.8,11.5c0.2,19.7,0.2,39.3,0,59c-0.1,3.7-1.6,7.4-2.4,11.1L187.5,745.8z"/>
<path class="st6" d="M976.3,827.3c-0.8-2.2-2.4-4.5-2.4-6.7c-0.2-22.9-0.2-45.9,0-68.8c0-2,1.2-4,1.8-6L976.3,827.3z"/>
<path class="st6" d="M504.5,952.5c5.5-6.8,11.6-4.5,17.8-1.2L504.5,952.5z"/>
<path class="st6" d="M636.5,951.2l8.8,0.3L636.5,951.2z"/>
<path class="st6" d="M652.2,952.1c0.5-0.9,1.1-1.8,1.6-2.7l2.5,2.9L652.2,952.1z"/>
</svg>
