<?xml version="1.0" encoding="utf-8"?>
<!-- Generator: Adobe Illustrator 25.2.0, SVG Export Plug-In . SVG Version: 6.00 Build 0)  -->
<svg version="1.1" id="Calque_1" xmlns="http://www.w3.org/2000/svg" xmlns:xlink="http://www.w3.org/1999/xlink" x="0px" y="0px"
	 viewBox="0 0 1322.8 1267.4" style="enable-background:new 0 0 1322.8 1267.4;" xml:space="preserve">
<style type="text/css">
	.st0{fill:#C64C5E;}
	.st1{fill:#F8C45D;}
	.st2{fill:#9F3C4F;}
	.st3{fill:#FED27A;}
	.st4{fill:#F3A951;}
	.st5{fill:#833044;}
	.st6{fill:#C43F56;}
	.st7{fill:#F09E2B;}
	.st8{fill:#F19E2B;}
	.st9{fill:#7C0931;}
	.st10{fill:#7C0930;}
	.st11{fill:#C12D48;}
</style>
<path class="st0" d="M893.6,982.1c-38.3-4.3-76.5-9.2-114.9-12.8c-25.9-2.5-52-3.1-78-4.6h22.5c0-0.7,0-1.3,0-2H570.8
	c0,0.7,0,1.4,0,2.1h20.6c-24.2,1.4-48.4,2.1-72.5,4.4c-38.7,3.7-77.4,8.6-116.1,12.9l-2.3,0.1c-2.2,0-4.4,0-6.6,0.3
	c-48.4,8.1-95.9,19.5-141.7,37.3L251.9,840v0.5c0.9-3.7,2.4-7.4,2.5-11.1c0.3-19,0.3-38,0-56.9c0-4.6-1.2-9.1-1.8-13.7
	c1.8-16.5,11.4-26.3,26.6-31.5c49.2-16.7,100-26.1,151.4-32.8c22.2-2.9,44.5-5,66.7-7.4c100.5-7.8,201.4-7.8,301.8,0
	c64.4,5.9,128.4,14.1,190.9,31.6c9.9,2.8,19.8,5.6,29.4,9.2c14.1,5.3,23,15.3,24.5,30.8c-0.6,2-1.8,4-1.8,6c-0.1,23-0.1,46,0,69
	c0,2.2,1.6,4.5,2.5,6.7V840c-0.1,59.9-0.2,119.8-0.3,179.7c-20.8-6.8-41.4-14.8-62.6-20c-28.3-7-57.1-11.8-85.7-17.5L893.6,982.1z"
	/>
<path class="st1" d="M833.9,398.2c-20.2,36.3-46.8,66.6-83.7,86.6c-12,6.3-24.4,11.8-37.1,16.4c-5.8,2.2-8.1,4.8-7.9,11
	c0.4,15,0.1,30.1,0,45.1c-1-17.3-1.9-34.5-2.9-52.3c-36.3,8.8-71.9,8-108.7,0.1c-0.3,6.2-0.5,11.3-0.7,16.3c-0.6,12-1.2,24-1.8,36
	c0-15,0.3-30.1-0.4-45.1c-0.2-3.4-2.9-8.9-5.7-9.8c-54.8-18.5-95-53.9-122.7-104.2c-5.6-16.5-11.6-32.9-16.8-49.6
	c-2.5-8.2-3.6-17-5.3-25.5V209.6h-57.5c15.7-0.6,31.3-1.6,47-1.5c8.1,0.1,11-2,10.8-10.5c-0.6-20.2-0.2-40.4-0.3-60.6
	c0-0.6,0-1.2-0.2-1.8c53.4-0.1,106.8-0.3,160.2-0.3c85.4,0,170.9,0.1,256.3,0.3c-0.2,0.6-0.3,1.2-0.2,1.8c0,20.2,0.3,40.4-0.3,60.6
	c-0.2,8.4,2.7,10.6,10.8,10.5c15.7-0.1,31.3,0.9,47,1.5H856V323C848.6,348.1,841.3,373.1,833.9,398.2z"/>
<path class="st2" d="M251.9,840l0.3,179.7c3.5,2.5,6.8,5.4,10.6,7.3c42.3,21.3,84.6,42.5,127,63.6c-10.8,11.1-25.6,10.4-39.1,12.4
	c-67.1,10-132.7,26.1-197.1,47.3c-15.4,5.1-28.1,1.7-35.5-9.3c-7.1-10.6-6.3-21.3-0.4-32.3c17.1-32.1,33.8-64.5,51.1-96.5
	c3.4-6.2,2.9-10-1.4-15.3c-19.5-24-38.6-48.3-57.7-72.6c-16.5-21-10-43.5,15.5-50.6C167.2,861.9,209.6,851.2,251.9,840z"/>
<path class="st2" d="M1044.1,1019.7c0.1-59.9,0.2-119.8,0.3-179.7c42.3,11.2,84.7,21.8,126.7,33.7c25.5,7.3,31.9,29.8,15.5,50.7
	c-19.1,24.3-38.3,48.6-57.7,72.6c-4.3,5.2-4.9,9.1-1.5,15.4c17,31.3,33.2,63.1,50.1,94.5c6.7,12.4,8.6,24.5-0.8,36
	s-21.9,11.8-35.2,7.4c-68.9-23.1-139.3-39.3-211.3-49.6c-8.2-1.2-15.9-6.5-23.8-9.9c42.4-21.2,84.7-42.4,127.1-63.6
	C1037.3,1025.2,1040.6,1022.2,1044.1,1019.7z"/>
<path class="st3" d="M856.4,135.2c-85.4-0.1-170.9-0.2-256.3-0.3c-53.4,0-106.8,0.2-160.2,0.3l-6.6-0.7c-13.8-5.5-25.3-13-29.2-28.8
	c-5.9-23.9,10.3-45.9,35.1-46.3c25.6-0.4,51.3,0,76.9-0.2c40.3-0.3,80.6-1,121-1c37.8,0,75.5,0.8,113.2,1c33.7,0.2,67.5,0,101.2,0
	c23.3,0,37.6,10.8,41.6,31.2c3.4,17.4-7.6,34.6-27.3,42.6c-1,0.5-1.9,1-2.8,1.6L856.4,135.2z"/>
<path class="st4" d="M833.9,398.2c7.4-25,14.7-50.1,22.1-75.2c13.8-4.3,29.1-6.1,41.1-13.4c28.5-17.3,35.9-45.6,34.2-77.2
	c-0.7-13.3-4.5-18.8-17.8-22.8c-15.7-0.6-31.3-1.6-47-1.5c-8.1,0.1-11-2-10.8-10.5c0.6-20.2,0.2-40.4,0.3-60.6
	c36.3,0,72.5,0.1,108.8,0c3.5,0,7-1.2,10.4-1.8c17.2,3.6,30.4,14.4,30.5,30.2c0.1,38.9,2.8,78.7-4.2,116.5
	c-12.8,68.8-73.5,115-143.4,116.3C850.1,398.4,842,398.2,833.9,398.2z"/>
<path class="st4" d="M440.1,137.1c0,20.2-0.3,40.4,0.3,60.6c0.2,8.4-2.7,10.6-10.8,10.5c-15.6-0.1-31.3,0.9-47,1.5
	c-9.4,1.4-16,6.8-17.2,16.1c-7.5,57.5,26.5,95.1,74.8,97.4c1.7,8.5,2.8,17.2,5.3,25.5c5.2,16.7,11.1,33.1,16.8,49.6
	c-45.6,3.3-87.2-6.6-122-37.7c-31.4-28-48.8-63.4-50.4-105.6c-1-27.6-0.5-55.2-0.2-82.8c0.2-19.6,11.7-32.8,31.3-36.8
	c3.1,0.6,6.2,1.8,9.3,1.8C366.9,137.1,403.5,137.1,440.1,137.1z"/>
<path class="st1" d="M799,687.1c-100.5-7.8-201.4-7.8-301.8,0c0-13.9,0-27.9,0.1-41.8c0.2-22.7,14.9-38,37.3-39.3
	c4.7-0.3,9.4-1,14.1-1.5c2.8,0.5,5.6,1.6,8.4,1.6c60.6,0.1,121.2,0.1,181.8,0c2.8,0,5.6-1,8.4-1.6c5.4,0.6,10.9,1.2,16.4,1.7
	c20.3,1.8,34.4,16.5,35,37C799.2,657.8,799,672.5,799,687.1z"/>
<path class="st4" d="M747.4,604.4c-2.8,0.6-5.6,1.6-8.4,1.6c-60.6,0.1-121.2,0.1-181.8,0c-2.8,0-5.6-1-8.4-1.6
	c23.4-7.3,37.5-23.1,42.2-47.2c0.6-12,1.2-24,1.8-36c0.2-5,0.5-10,0.7-16.3c36.8,7.9,72.3,8.7,108.7-0.1c1,17.8,2,35.1,2.9,52.3
	C709.9,581.3,724.1,597,747.4,604.4z"/>
<path class="st5" d="M1044.1,1019.7c-3.5,2.5-6.8,5.4-10.6,7.3c-42.3,21.3-84.6,42.5-127,63.6c-8.4-6.1-12.4-14.4-12.4-24.7
	c0.6-3.1,1.8-6.2,1.8-9.3c0.1-24.8,0-49.7,0-74.5c28.6,5.7,57.4,10.5,85.7,17.5C1002.7,1004.9,1023.2,1012.9,1044.1,1019.7z"/>
<path class="st5" d="M389.8,1090.7c-42.3-21.2-84.7-42.4-127-63.6c-3.8-1.9-7.1-4.8-10.6-7.3c45.8-17.8,93.3-29.2,141.7-37.3
	c2.2-0.2,4.4-0.3,6.6-0.3c0,23-0.1,46,0,69c0,4.9,1.1,9.9,1.7,14.8C402.3,1076.3,398.1,1084.5,389.8,1090.7z"/>
<path class="st6" d="M591.3,964.7h-20.5c0-0.7,0-1.4,0-2.1h152.4c0,0.7,0,1.3,0,2h-22.5L591.3,964.7z"/>
<path class="st7" d="M440.1,137.1c-36.6,0-73.2,0.1-109.9,0c-3.1,0-6.2-1.2-9.3-1.8l112.3-0.7l6.6,0.7
	C440.1,135.8,440.1,136.4,440.1,137.1z"/>
<path class="st8" d="M975.3,135.2c-3.5,0.6-7,1.8-10.4,1.8c-36.3,0.1-72.5,0-108.8,0c0-0.6,0.1-1.2,0.2-1.8l6.6-0.7L975.3,135.2z"/>
<path class="st9" d="M402.2,1066c-0.6-4.9-1.7-9.9-1.7-14.8c-0.2-23,0-46,0-69l2.3-0.1C402.6,1010.1,402.4,1038,402.2,1066z"/>
<path class="st10" d="M895.8,982.2c0,24.8,0.1,49.7,0,74.5c0,3.1-1.2,6.2-1.8,9.3l-0.5-83.9L895.8,982.2z"/>
<path class="st11" d="M252.5,758.8c0.6,4.6,1.8,9.1,1.8,13.7c0.2,19,0.2,38,0,56.9c-0.1,3.7-1.6,7.4-2.5,11.1
	C252,813.3,252.2,786,252.5,758.8z"/>
<path class="st11" d="M1044.4,840.5c-0.9-2.2-2.4-4.5-2.5-6.7c-0.2-23-0.2-46,0-69c0-2,1.2-4,1.8-6L1044.4,840.5z"/>
</svg>
