<?xml version="1.0" encoding="utf-8"?>
<!-- Generator: Adobe Illustrator 25.2.0, SVG Export Plug-In . SVG Version: 6.00 Build 0)  -->
<svg version="1.1" id="Calque_1" xmlns="http://www.w3.org/2000/svg" xmlns:xlink="http://www.w3.org/1999/xlink" x="0px" y="0px"
	 viewBox="0 0 100 100" style="enable-background:new 0 0 100 100;" xml:space="preserve">
<style type="text/css">
	.st0{fill:#F25959;}
	.st1{fill:#FFFFFF;}
</style>
<path class="st0" d="M50,100L50,100C22.4,100,0,77.6,0,50v0C0,22.4,22.4,0,50,0h0c27.6,0,50,22.4,50,50v0C100,77.6,77.6,100,50,100z
	"/>
<path class="st1" d="M50,16.9c-10.1,0-23.9,0.2-26.7,0.4c-3.2,1.9-9.4,8.3-9.4,10.2v3.1c0,3.9,3.7,7.4,7,7.4c4,0,7.3-3.3,7.3-7.3
	c0,3.9,3.2,7.3,7.2,7.3s7.1-3.3,7.1-7.3c0,3.9,3.4,7.3,7.4,7.3H50c4,0,7.4-3.3,7.4-7.3c0,3.9,3.1,7.3,7.1,7.3c4,0,7.2-3.3,7.2-7.3
	c0,3.9,3.3,7.3,7.3,7.3c3.3,0,7-3.4,7-7.4v-3.1c-0.1-1.9-6.3-8.3-9.4-10.2C66.9,16.9,60.1,16.9,50,16.9z M42.4,39.9
	c-0.4,0.7-0.9,1.3-1.4,1.8c-1.5,1.5-3.6,2.4-5.9,2.4c-2.2,0-4.3-0.9-5.9-2.4c-0.5-0.5-1-1.1-1.3-1.8c-0.4,0.7-0.9,1.2-1.5,1.8
	c-1.6,1.5-3.7,2.4-5.9,2.4c-0.3,0-0.6-0.1-0.8-0.2c-0.3,3.3-0.4,4.7-0.4,7v0c0,1.2,0,2.2,0,3.5c0.1,7-0.7,22.8,3.1,26.7
	c5.9,1.4,16.7,2,27.6,2c10.9,0,21.7-0.6,27.6-2c3.8-3.9,3-19.6,3.1-26.7c0-1.4,0-2.3,0-3.5v0c0-2.3-0.2-3.7-0.6-7
	c-0.2,0.1-0.5,0.2-0.8,0.2c-2.2,0-4.3-0.9-5.9-2.4c-0.5-0.5-1.1-1.1-1.5-1.8h0c-0.4,0.7-0.8,1.2-1.3,1.8c-1.6,1.5-3.7,2.4-5.9,2.4
	c-2.3,0-4.4-0.9-5.9-2.4c-0.6-0.5-1-1.1-1.4-1.8c-0.4,0.7-0.8,1.3-1.4,1.8c-1.6,1.5-3.7,2.4-5.9,2.4c-0.1,0-0.2,0-0.2,0
	c-0.1,0-0.2,0-0.2,0c-2.2,0-4.3-0.9-5.9-2.4C43.3,41.1,42.8,40.5,42.4,39.9z M37.9,48.9L37.9,48.9c2.1,0,4.1,0,6.4,2.6
	c1.9-0.2,3.8-0.3,5.7-0.3h0c1.9,0,3.9,0.1,5.7,0.3c2.4-2.6,4.3-2.6,6.4-2.6h0v0c1,0,5.1,0,7.9,7.9l3,10.9c2.2,8.1-0.7,8.3-4.4,8.3
	c-5.5-0.2-8.5-4.2-8.5-8.2c-3,0.5-6.6,0.7-10.1,0.7s-7.1-0.3-10.1-0.7c0,4-3,8-8.5,8.2c-3.7,0-6.7-0.2-4.4-8.3l3-10.9
	C32.8,48.9,36.8,48.9,37.9,48.9z M50,54.9c0,0-4.9,4.5-5.8,6.1l3.2-0.1v2.8c0,0.1,1.3,0.1,2.6,0c1.3,0.1,2.6,0.1,2.6,0v-2.8l3.2,0.1
	C54.9,59.4,50,54.9,50,54.9z"/>
</svg>
