<?xml version="1.0" encoding="utf-8"?>
<!-- Generator: Adobe Illustrator 28.0.0, SVG Export Plug-In . SVG Version: 6.00 Build 0)  -->
<svg version="1.1" id="Layer_1" xmlns="http://www.w3.org/2000/svg" xmlns:xlink="http://www.w3.org/1999/xlink" x="0px" y="0px"
	 viewBox="0 0 7176.9 1574.9" style="enable-background:new 0 0 7176.9 1574.9;" xml:space="preserve">
<style type="text/css">
	.st0{fill-rule:evenodd;clip-rule:evenodd;fill:#D5D7D8;}
</style>
<g>
	<g transform="translate(0 -.187)">
		<path class="st0" d="M244.9,472.2c0,81.7,66.2,148.1,148.1,148.1S541,554.1,541,472.2c0-81.7-66.2-147.9-147.9-147.9
			c0,0,0,0-0.2,0C311.3,324.2,245.1,390.3,244.9,472.2L244.9,472.2z M632.1,1447H403.6c-73.5,0.2-143.9-29-195.5-80.9
			c-52.2-51.8-81.3-122.3-81.1-195.5V403.6c0-73.8,28.8-143.4,80.9-195.5c51.8-52.2,122.3-81.3,195.7-81.1h228.6v1320H632.1z
			 M747.4,0.2h-344C180.6,0.2,0,180.8,0,403.6v766.7c0,222.8,180.6,403.4,403.6,403.4h344c6.4,0,11.6-5,11.6-11.4c0,0,0,0,0-0.2
			V11.6C759,5.4,754,0.2,747.4,0.2L747.4,0.2z M1227.9,706.5c87.9,1.9,157.6,74.4,155.9,162.5c-1.7,85.4-70.5,154.2-155.9,155.9
			c-87.9-1.9-157.6-74.4-155.9-162.5C1073.6,777,1142.4,708.2,1227.9,706.5z M928,1573.7h242.3c222.8,0,403.6-180.6,403.6-403.4
			V403.6c0-222.8-180.8-403.4-403.6-403.4H926.7c-5.6,0-10.1,4.5-10.3,9.9v0.2v1551.8C916.6,1568.7,921.6,1573.7,928,1573.7
			L928,1573.7z"/>
	</g>
	<path class="st0" d="M6204.2,380.6h-95.7V126.2h95.7c70.3,0.2,127.1,57,127.1,127.3C6331.3,323.6,6274.5,380.6,6204.2,380.6z
		 M6199.7,34h-181.3v439h181.5c124.5,0,225.8-98.3,225.8-219.5C6425.6,132.3,6324.2,34,6199.7,34L6199.7,34z M5863.6,854.3
		c93.5,0,180.8,49.9,227.3,128.6l134.8-117c-81.9-122.5-219.7-195.7-367-195.5c-243.8,0-442.1,198.2-442.1,441.9
		s198.4,441.9,442.1,441.9c148.2,0,284.3-72.9,367-195.5l-134.8-117.2c-46.5,78.7-133.9,128.6-227.3,128.6
		c-144.9,0-262.7-115.7-262.7-257.8C5600.9,970,5718.7,854.3,5863.6,854.3L5863.6,854.3z M4586.4,873h264.5v652.4h178.2V873h258.7
		V697.3h-701.4V873L4586.4,873z M6972.9,1023.9h-386.6V697.3h-171.2v828.2h171.2v-330.3h386.6v330.3h171.4V697.3h-171.4V1023.9z
		 M6943,390.1c-75.3-0.2-136.3-61.3-136.3-136.7c0-75.2,61.3-136.7,136.3-136.7c75.3,0.2,136.3,61.3,136.5,136.7
		C7079.5,328.8,7018.4,389.9,6943,390.1z M6943,19.2c-128.8,0-233.7,105.1-233.7,234.2c0,129.4,104.9,234.4,233.7,234.4
		c129,0,233.9-105.1,233.9-234.4C7176.9,124.3,7072,19.2,6943,19.2L6943,19.2z M4889.6,391.6h-252.2V288.8h233.1v-79.5h-233.1v-94.8
		h252.2V34l-341.2,0.2V473l341.2-0.2V391.6L4889.6,391.6z M5647.1,473V34h-89.2v288.3L5342,34h-88.6v439h89V179.4l218,293.5H5647.1
		L5647.1,473z M2720.1,473h97.6V34h-97.6V473L2720.1,473z M2339.3,1022.4c-119.5-19.6-196.7-41.9-196.7-97.6
		c0-64.5,86-89.2,201.3-89.2c107.3,0,215.2,40.9,253.5,56.8l58.9-143.2c-41.9-16.6-173.9-63.7-320.8-63.7
		c-178.9,0-369.2,87.3-369.2,249c0,131,92.4,198.2,330,238.9c167.3,29,259.5,44.7,256.9,116.7c-1.5,39.6-32.2,106-220.8,106
		c-152,0-258.7-55-295.9-77.4l-78.3,141.5c41.9,22.1,181.9,87.9,362.3,87.9c263.6,0,402.7-91.2,402.7-264
		C2723.3,1184.3,2689.6,1080,2339.3,1022.4L2339.3,1022.4z M3654.1,1298.3l-175.4-601h-146.9L3157,1295.9l-159.1-598.6h-180.2
		l234.4,828.2H3251L3405.2,980l153.5,545.5h199.8l235.6-828.2h-180L3654.1,1298.3L3654.1,1298.3z M3237.9,179.4l218,293.5h86.7V34
		h-89.2v288.3L3237.6,34h-88.6v439h89V179.4z M4199.8,1525.5h184.3V697.3h-184.3V1525.5z M4227.1,34h-371.8v93.1h140.2V473h94.6
		V127.1h137L4227.1,34L4227.1,34z M2084.6,179.4L2302.8,473h86.6V34h-89v288.3L2084.3,34h-88.6v439h88.8L2084.6,179.4L2084.6,179.4z
		"/>
</g>
</svg>
