<?xml version="1.0" encoding="utf-8"?>
<!-- Generator: Adobe Illustrator 28.0.0, SVG Export Plug-In . SVG Version: 6.00 Build 0)  -->
<svg version="1.1" id="Layer_1" xmlns="http://www.w3.org/2000/svg" xmlns:xlink="http://www.w3.org/1999/xlink" x="0px" y="0px"
	 viewBox="0 0 2162 677" style="enable-background:new 0 0 2162 677;" xml:space="preserve">
<style type="text/css">
	.st0{fill:#D5D7D8;}
</style>
<rect x="2" y="2.2" class="st0" width="321.3" height="321.3"/>
<rect x="358.6" y="2.2" class="st0" width="321.3" height="321.3"/>
<rect x="2" y="358.8" class="st0" width="321.3" height="321.3"/>
<rect x="358.6" y="358.8" class="st0" width="321.3" height="321.3"/>
<g>
	<path class="st0" d="M1019.8,46.8h268.4c158.5,0,266.7,70.7,266.7,212.1v1.7c0,144-109.9,220.7-270.9,220.7h-64.8v161.9h-199.3
		V46.8z M1272.9,339c51.1,0,85.2-23,85.2-65.6v-1.7c0-43.4-31.5-65.6-84.3-65.6h-54.5V339H1272.9z"/>
	<path class="st0" d="M1585.7,351.6v-1.7c0-173.6,135.4-303.1,308.9-303.1c127.9,0,214.3,62.3,263.3,151.1l-160.3,93.8
		c-21.6-41.5-52.3-70.6-105.5-70.6c-65.6,0-108.8,57.3-108.8,127.1v1.7c0,75.6,44.8,128.7,108.8,128.7c54.8,0,85.5-29.9,109.6-73.1
		l160.3,90.5c-49,86.4-130.4,157-274.9,157C1726,653,1585.7,531.8,1585.7,351.6z"/>
</g>
</svg>
