<?xml version="1.0" encoding="utf-8"?>
<!-- Generator: Adobe Illustrator 28.0.0, SVG Export Plug-In . SVG Version: 6.00 Build 0)  -->
<svg version="1.1" id="Layer_1" xmlns="http://www.w3.org/2000/svg" xmlns:xlink="http://www.w3.org/1999/xlink" x="0px" y="0px"
	 viewBox="0 0 3559 1104" style="enable-background:new 0 0 3559 1104;" xml:space="preserve">
<style type="text/css">
	.st0{fill:#D5D7D8;}
</style>
<g>
	<g>
		<path class="st0" d="M1468.7,623.3h40.4v-33.8c0.4-6-1.5-11.9-5.3-16.6c-4.1-4.1-9.7-6.2-15.5-5.8v0.1c-5.5-0.3-10.9,1.9-14.6,6.1
			c-3.6,5-5.4,11.1-5,17.3V623.3z"/>
		<path class="st0" d="M1310.8,0v1104H3559V0H1310.8z M2245.8,136.3h178.9L2224,412.1l-89.5-122.9L2245.8,136.3z M1455.7,150.7
			c8-9.3,19.6-14.6,31.9-14.5h0.2v25.1h-0.1c-6.4,0-12.6,2.7-16.8,7.6c-4.1,6.5-6.1,14.2-5.4,21.8c-0.4,6.2,1.1,12.4,4.3,17.8
			c2.7,4,7.3,6.3,12.1,6.1c4.8,0.2,9.4-1.9,12.3-5.7c3.8-6.2,6.3-13.2,7.3-20.4l2.3-11.7c1.7-12.4,6.6-24.1,14.1-34.1
			c6.7-7.1,16.1-10.9,25.9-10.3l0,0c12-0.6,23.4,4.8,30.7,14.3c15,25.6,14.5,57.4-1.4,82.5c-8.8,10.3-21.8,15.9-35.3,15.2h-0.2V219
			h0.2c7.8,0.6,15.4-2.6,20.4-8.5c4.6-7.3,6.7-15.9,6.1-24.5c0.4-7-1.3-14-5-20c-3.3-4.6-8.7-7.2-14.3-6.9c-4.7-0.2-9.2,2-11.9,5.8
			c-3.7,6.7-6.2,13.9-7.3,21.5l-2.3,11.3c-1.6,12-6.6,23.2-14.3,32.5c-6.9,7.2-16.6,11.2-26.6,10.9c-10.9,0.3-21.2-4.6-27.8-13.3
			c-7.4-10.7-11.1-23.6-10.3-36.7C1443.3,176.7,1447.4,162.4,1455.7,150.7z M1455.5,556.3l-1.1,1.4c1-1.6,2-3.1,3.2-4.6
			c6.8-8.3,17.2-12.9,27.9-12.5c14.5-1,27.8,8.1,32.1,22c1.6-5.7,5.1-10.7,10-14.2c5.7-3.3,12.1-4.9,18.7-4.8l20-1.1
			c5.5,0.1,10.9-1.3,15.6-4.1l0.3-0.2v26.7c-5,2.6-10.5,3.8-16.1,3.6l-14.7,0.6c-6.1-0.3-12.2,1.6-16.9,5.5
			c-3.6,4.5-5.3,10.1-4.8,15.8v33h52.7v25.8h-134.9V588c0-2.9,0.1-5.8,0.4-8.7c0,0.9,0,1.8,0,2.8
			C1448.1,573,1450.7,564.1,1455.5,556.3z M1447.5,704.5h23.2l-0.1,73.6h31.8v-66.5h22.3V778h34.4v-73.6h23.2v99.3h-134.9
			L1447.5,704.5L1447.5,704.5z M1447.5,484.1v-25.8h134.9v25.8H1447.5z M1447.5,395.6v-99.3h23.2l-0.1,73.6h31.8v-66.5h22.3v66.5
			h34.4v-73.6h23.2v99.3L1447.5,395.6L1447.5,395.6z M1572.9,952.3c-8.8,10.3-21.8,15.9-35.3,15.2h-0.2v-25.3h0.2
			c7.8,0.6,15.4-2.6,20.4-8.5c4.6-7.3,6.7-15.9,6.1-24.5c0.4-7-1.3-14-5-20c-3.3-4.6-8.7-7.2-14.3-6.9c-4.7-0.2-9.2,2-11.9,5.8
			c-3.7,6.7-6.2,13.9-7.3,21.5l-2.3,11.3c-1.6,12-6.6,23.2-14.3,32.5c-6.9,7.2-16.6,11.2-26.6,10.9c-10.9,0.3-21.2-4.6-27.8-13.3
			c-7.4-10.7-11.1-23.6-10.3-36.7c-1-14.4,3-28.6,11.4-40.4c8-9.3,19.6-14.6,31.9-14.5h0.2v25.2h-0.2c-6.4,0-12.6,2.7-16.8,7.6
			c-4.1,6.5-6.1,14.2-5.4,21.8c-0.4,6.2,1.1,12.4,4.3,17.8c2.7,4,7.3,6.3,12.1,6.1c4.8,0.2,9.4-1.9,12.3-5.7
			c3.8-6.2,6.3-13.2,7.3-20.4l2.3-11.7c1.7-12.4,6.6-24.1,14.1-34.1v0c6.7-7.2,16.2-11,25.9-10.5c11.9-0.6,23.4,4.8,30.7,14.3
			C1589.3,895.4,1588.8,927.3,1572.9,952.3z M1819.7,967.7h-178.9L1866.2,658l89.5,123L1819.7,967.7z M2270.4,967.6l-605-831.3
			h178.9l604.9,831.3H2270.4z M2572.9,967.7V136.3h36.2l0.1,831.4H2572.9z M2831.8,181.2c54.5-42.4,130.1-63.6,226.9-63.6
			c109.9,0,193.2,23.4,249.7,70.1c20.3,16.6,37.6,36.5,51.4,58.9l-81.2,111.6c-26.8-33.7-66.2-113.2-217.5-113.2
			c-38.9-2.4-77.6,6.9-111.1,26.9c-25.2,16.9-39.8,45.6-38.6,75.9c-1.6,30,11.7,58.9,35.7,77.1c24.2,16,51,27.6,79.3,34.2
			l-86.1,118.3C2813.4,537.5,2750,465.8,2750,352.3C2747.7,285.3,2778.3,221.5,2831.8,181.2z M3333.5,919.2
			c-59.3,44.8-141.9,67.1-247.9,67.1c-113,0-200.6-25.3-262.5-75.9c-27.6-22.3-49.9-50.4-65.4-82.3l86.9-119.4
			C2905,817.3,2964.4,859,3090.2,859c43.9,2.8,87.6-8,125.1-30.9c28.8-20.4,45.1-54.1,43.3-89.3c1.5-29.6-12.4-57.9-36.8-74.7
			c-38.8-25.6-82.1-43.4-127.7-52.5l87.1-119.6c79.6,19.1,138.3,45.6,176.3,79.4l0,0c44.2,40.8,68,99.2,64.8,159.4
			C3425.8,804.3,3392.5,874.9,3333.5,919.2z"/>
	</g>
	<g>
		<g>
			<g>
				<rect x="215.5" y="157.9" class="st0" width="0" height="0"/>
				<path class="st0" d="M560.7,443.6l-2.5-1.9l0,0l0,0l-2.5,1.9C390.7,569.8,111.3,875.9,196.4,963.2
					c97.1,85,221.1,136.1,359.4,136.1c0.9,0,1.6,0,2.5,0l0,0l0,0c0.9,0,1.6,0,2.5,0c138.5,0,262.3-51,359.4-136.1
					C1005.2,875.9,725.9,569.8,560.7,443.6z"/>
				<path class="st0" d="M10.7,551.7c0,125.2,42.1,240.6,112.7,332.8c1.2,0,2.5-0.9,2.6-2.3v-0.2c0-0.9,0-1.8-0.4-2.6
					c-3.5-11.7-5.1-25.1-4.7-39.4c3-145.2,188-413.6,286.8-532.5l2.3-2.6l-2.3-2.1C277.9,174.8,215.7,157.9,190.2,159
					c-7.7,0.4-13.9,0.4-16.5,3C73,261.2,10.7,399.2,10.7,551.7z"/>
				<path class="st0" d="M1106,551.7c0,125.2-42.1,240.6-112.7,332.8c-1.2,0-2.5-0.9-2.6-2.3v-0.2c0-0.9,0-1.8,0.4-2.6
					c3.5-11.7,5.1-25.1,4.7-39.4c-3-145.2-188-413.6-286.8-532.5l-2.3-2.6l2.3-2.1C838.8,174.8,901,157.9,926.5,159
					c7.7,0.4,13.9,0.4,16.5,3C1043.6,261.2,1106,399.2,1106,551.7z"/>
				<path class="st0" d="M843,83.8C760.1,33.1,662.6,4,558.3,4S356.6,33.1,273.5,83.8c-1.6,1.1-7.2,5.3-1.4,4.2l6.7-1.4
					c23-4.7,48.4-4.2,74.2-0.5c93.3,16.3,191.5,70.8,202.7,78.2c0,0,1.8,1.1,2.5,1.6c0.7-0.5,2.5-1.6,2.5-1.6
					c11.2-7.4,109.2-61.9,202.7-78.2c25.9-3.7,51.4-4.2,74.2,0.5l6.7,1.4C850.2,89,844.4,84.8,843,83.8z"/>
			</g>
		</g>
	</g>
</g>
</svg>
