<?xml version="1.0" encoding="utf-8"?>
<!-- Generator: Adobe Illustrator 28.0.0, SVG Export Plug-In . SVG Version: 6.00 Build 0)  -->
<svg version="1.1" id="Layer_1" xmlns="http://www.w3.org/2000/svg" xmlns:xlink="http://www.w3.org/1999/xlink" x="0px" y="0px"
	 viewBox="0 0 3839 763.3" style="enable-background:new 0 0 3839 763.3;" xml:space="preserve">
<style type="text/css">
	.st0{fill:#D5D7D8;}
</style>
<g>
	<polygon id="polygon8_9_" class="st0" points="3135.1,247.7 3406.7,615.9 3457.8,616 3457.8,157.9 3406.8,157.9 3406.8,534.1 
		3129.6,157.6 3084.2,157.5 3084.2,615.6 3135.1,615.6 	"/>
	<path id="path10-1_9_" class="st0" d="M2819.2,147.2c-128.8,0-218.9,98.5-218.9,239.6c0,141.3,90,239.8,218.9,239.8
		c128.7,0,218.4-98.5,218.4-239.8C3037.6,245.7,2947.9,147.2,2819.2,147.2 M2819.2,578c-98.1,0-166.9-78.6-166.9-191.2
		c0-112.5,68.8-191.1,166.9-191.1c98,0,166.3,78.7,166.3,191.1C2985.5,499.4,2917.2,578,2819.2,578"/>
	<polygon id="polygon12_9_" class="st0" points="3835.8,202.4 3835.8,157.6 3515.1,157.6 3515.1,616 3839,616 3839,571.2 
		3566.5,571.2 3566.5,401.6 3818.7,401.6 3818.7,356.8 3566.5,356.8 3566.5,202.4 	"/>
	<polygon id="polygon14_9_" class="st0" points="2179.2,157.8 2310.3,335.9 2441.3,157.8 2501.5,157.8 2340.8,376.2 2517,616.4 
		2456.7,616.4 2310.3,417.6 2163.9,616.4 2103.6,616.4 2279.7,376.2 2118.9,157.8 	"/>
	<path id="path16-7_9_" class="st0" d="M1650.5,393.5c-9.6-8.1-20-14.5-30-19.1c33.3-18.1,55.1-52.2,55.1-91.8
		c0-29.3-10.8-124.7-149.1-124.7h-186.2v197.7h-62c-8.1,10.5-26.3,35.7-33.3,46h95.3v214.8h186.2c100.9,0,163.5-51.2,163.5-133.9
		C1690,446.4,1676.4,415.7,1650.5,393.5 M1391.8,205.7h134.7c36.5,0,97.5,9.1,97.5,72.9c0,48.2-35.6,77-97.5,77h-134.7V205.7z
		 M1526.5,568.5h-134.7V401.6h134.7c51.1,0,112.2,14.1,112.2,79.9C1638.7,557.2,1568.4,568.5,1526.5,568.5"/>
	<path id="path18_9_" class="st0" d="M1932.2,147.3c-128.8,0-218.8,98.5-218.8,239.6c0,141.3,90,239.7,218.8,239.7
		c128.7,0,218.4-98.5,218.4-239.7C2150.7,245.8,2060.9,147.3,1932.2,147.3 M1932.2,578c-98.1,0-166.8-78.6-166.8-191.2
		c0-112.5,68.7-191.1,166.8-191.1c98,0,166.3,78.6,166.3,191.1C2098.6,499.4,2030.2,578,1932.2,578"/>
	<polygon id="polygon20_9_" class="st0" points="917.4,157.9 1078.1,376.2 901.9,616.3 962.3,616.3 1108.6,417.6 1255,616.3 
		1315.3,616.3 1139,376.2 1299.9,157.9 1239.6,157.9 1108.5,336 977.5,157.9 	"/>
	<g>
		<g>
			<rect x="142.7" y="107.2" class="st0" width="0" height="0"/>
			<path class="st0" d="M383.3,306.3l-1.7-1.3l0,0l0,0l-1.7,1.3c-115.1,88-309.7,301.3-250.5,362.2c67.7,59.2,154,94.8,250.5,94.8
				c0.6,0,1.1,0,1.7,0l0,0l0,0c0.6,0,1.1,0,1.7,0c96.5,0,182.8-35.5,250.5-94.8C693.1,607.6,498.4,394.3,383.3,306.3z"/>
			<path class="st0" d="M0,381.6c0,87.2,29.3,167.6,78.5,231.9c0.9,0,1.7-0.7,1.8-1.6v-0.1c0.1-0.6,0-1.3-0.2-1.8
				c-2.5-8.2-3.5-17.4-3.3-27.5c2.1-101.1,130.9-288.2,199.9-371l1.5-1.9l-1.5-1.5c-90.6-89.3-134-100.9-151.6-100.2
				c-5.4,0.2-9.6,0.2-11.5,2C43.5,179.2,0,275.3,0,381.6z"/>
			<path class="st0" d="M763.3,381.6c0,87.2-29.3,167.6-78.5,231.9c-0.9,0-1.7-0.7-1.8-1.6v-0.1c-0.1-0.6,0-1.3,0.2-1.8
				c2.5-8.2,3.5-17.4,3.3-27.5c-2.1-101.1-130.9-288.2-199.9-371l-1.5-1.9l1.5-1.5c90.6-89.3,134-100.9,151.6-100.2
				c5.4,0.2,9.6,0.2,11.5,2C719.8,179.2,763.3,275.3,763.3,381.6z"/>
			<path class="st0" d="M580,55.5C522.2,20.3,454.3,0,381.6,0S241.1,20.3,183.3,55.5c-1.1,0.8-5,3.7-0.9,2.9l4.7-0.9
				c16-3.3,33.7-2.9,51.7-0.4c65.1,11.4,133.4,49.3,141.2,54.5c0,0,1.2,0.8,1.7,1.1c0.5-0.3,1.7-1.1,1.7-1.1
				c7.8-5.2,76.2-43.1,141.2-54.5c18-2.6,35.7-2.9,51.7,0.4l4.7,0.9C585.1,59.3,581.1,56.3,580,55.5z"/>
		</g>
	</g>
</g>
</svg>
