<?xml version="1.0" encoding="utf-8"?>
<!-- Generator: Adobe Illustrator 28.0.0, SVG Export Plug-In . SVG Version: 6.00 Build 0)  -->
<svg version="1.1" id="Calque_1" xmlns="http://www.w3.org/2000/svg" xmlns:xlink="http://www.w3.org/1999/xlink" x="0px" y="0px"
	 viewBox="0 0 64 64" style="enable-background:new 0 0 64 64;" xml:space="preserve">
<style type="text/css">
	.st0{fill:#FFFFFF;}
</style>
<g>
	<path class="st0" d="M0,64C0,42.7,0,21.3,0,0c21.3,0,42.7,0,64,0c0,21.3,0,42.7,0,64C42.7,64,21.3,64,0,64z M14.7,33.7
		C7.4,37.4,3.8,43.1,3.7,51c0,3.2,0.7,4.9,4.4,4.8c8.8-0.2,17.7-0.2,26.5,0c3.2,0.1,4.3-1,4.4-4.3c0.2-8.4-4-14-10.9-18
		c6.8-7.7,7.3-14.3,1.8-19.7c-4.8-4.7-12.3-4.7-17.1-0.1C7.4,19,7.9,26,14.7,33.7z M56.1,40.1c-0.4,0-0.9-0.1-1.3-0.1
		c0.3-0.4,0.5-0.8,0.8-1.3c3.1-5.3,2.7-10.1-1.3-13.4c-3.5-3-8.8-3-12.4-0.1c-3.8,3.2-4.4,7.8-1.8,13c0.5,1,0.6,2.3,0.8,3.5
		c0.7,4.5,1.3,9.1,2,14c4.6,0,9.2,0.3,13.8-0.2c1.3-0.1,3.6-2.5,3.4-3.3C59.1,48.1,57.5,44.1,56.1,40.1z"/>
	<path class="st0" d="M14.7,33.7C7.9,26,7.4,19,12.8,13.8c4.8-4.6,12.3-4.6,17.1,0.1c5.5,5.4,5,12-1.8,19.7c6.9,4,11.1,9.6,10.9,18
		c-0.1,3.3-1.2,4.4-4.4,4.3c-8.8-0.2-17.7-0.2-26.5,0c-3.7,0.1-4.5-1.6-4.4-4.8C3.8,43.1,7.4,37.4,14.7,33.7z"/>
	<path class="st0" d="M56.1,40.1c1.4,4,3,8,4,12.2c0.2,0.9-2.1,3.2-3.4,3.3c-4.6,0.4-9.2,0.2-13.8,0.2c-0.7-4.9-1.3-9.5-2-14
		c-0.2-1.2-0.2-2.5-0.8-3.5c-2.6-5.2-2.1-9.8,1.8-13c3.6-2.9,8.8-2.9,12.4,0.1c4,3.4,4.4,8.1,1.3,13.4c-0.2,0.4-0.5,0.8-0.8,1.3
		C55.2,40,55.7,40.1,56.1,40.1z"/>
</g>
</svg>
