<?xml version="1.0" encoding="utf-8"?>
<!-- Generator: Adobe Illustrator 25.2.0, SVG Export Plug-In . SVG Version: 6.00 Build 0)  -->
<svg version="1.1" id="Capa_1" xmlns="http://www.w3.org/2000/svg" xmlns:xlink="http://www.w3.org/1999/xlink" x="0px" y="0px"
	 viewBox="0 0 800 800" style="enable-background:new 0 0 800 800;" xml:space="preserve">
<style type="text/css">
	.st0{fill:#546A79;}
	.st1{fill:#38454F;}
	.st2{fill:#FFFFFF;}
</style>
<g>
	<path class="st0" d="M800,624.6V183.8c0-16.7-13.5-30.3-30.3-30.3H30.3C13.6,153.6,0,167.1,0,183.8v440.8
		c0,16.7,13.6,30.3,30.3,30.3h739.5C786.4,654.9,800,641.3,800,624.6z M398,263.7c10.7-19.1,27-31,48.2-36.1
		c2.6-0.6,5.3-0.8,8.3-1.3c0.1,2.2,0.2,4.1,0.3,6c0.4,23.5-14.7,54.2-43.7,65.7c-6.4,2.5-13,3.8-19.8,3.7c-1.3,0-1.8-0.4-1.9-1.8
		C388.2,286.9,391.7,274.9,398,263.7z M519.2,473.2c-8.1,21.9-20.4,41.3-35.3,59.2c-2.9,3.4-6.2,6.6-9.7,9.5
		c-6.9,5.8-14.7,9.3-23.9,9.6c-6.8,0.3-13.4-1-19.7-3.6c-4.6-1.9-9.1-4-13.8-5.7c-15.1-5.4-30.1-4.7-44.9,1.1
		c-5.4,2.1-10.6,4.5-16.1,6.3c-6.3,2.1-12.9,3-19.5,1.7c-5.8-1.1-10.9-3.8-15.6-7.3c-5.9-4.3-10.8-9.6-15.4-15.2
		c-21.8-26.6-36.5-56.7-43.6-90.4c-3-14.5-4.5-29.1-3.6-44c1.1-17.8,5.2-34.7,14.7-49.9c11.9-19.2,28.7-31.7,50.9-36.9
		c13.3-3.1,26.2-1.9,38.9,3c6.7,2.6,13.4,5.1,20.1,7.6c6.2,2.3,12.3,2.3,18.5,0c6.8-2.6,13.7-5.2,20.6-7.7c7-2.6,14.2-4.6,21.6-5.3
		c11.2-0.9,22.1,0.5,32.7,4.1c15,5,27.3,13.9,36.5,26.9c0.3,0.4,0.5,0.7,0.7,1c-23.3,16.2-36.6,37.7-34.6,66.7
		c1.9,29,17.6,48.7,43.2,61.4C521,467.9,520.2,470.6,519.2,473.2z"/>
</g>
<path class="st1" d="M27.5,654.9h47.7V153.6H28.1c-15.4,0-27.8,12.5-27.8,27.8v446.2C0.3,642.7,12.5,654.9,27.5,654.9z"/>
<path class="st1" d="M725,654.9h43.8c17.2,0,31.2-13.9,31.2-31.2V183.6c0-16.6-13.4-30-30-30h-45V654.9z"/>
<path class="st2" d="M32.6,426.7L32.6,426.7c-12.4,0-22.5-10.1-22.5-22.5v0c0-12.4,10.1-22.5,22.5-22.5h0
	c12.4,0,22.5,10.1,22.5,22.5v0C55,416.6,45,426.7,32.6,426.7z"/>
</svg>
