<?xml version="1.0" encoding="utf-8"?>
<!-- Generator: Adobe Illustrator 25.2.0, SVG Export Plug-In . SVG Version: 6.00 Build 0)  -->
<svg version="1.1" id="Capa_1" xmlns="http://www.w3.org/2000/svg" xmlns:xlink="http://www.w3.org/1999/xlink" x="0px" y="0px"
	 viewBox="0 0 800 800" style="enable-background:new 0 0 800 800;" xml:space="preserve">
<style type="text/css">
	.st0{fill:#546A79;}
	.st1{fill:#38454F;}
	.st2{fill:#FFFFFF;}
</style>
<path class="st0" d="M631.4,0H190.6c-16.7,0-30.3,13.5-30.3,30.3v739.5c0,16.7,13.5,30.3,30.3,30.3h440.8
	c16.7,0,30.3-13.6,30.3-30.3V30.3C661.6,13.6,648.1,0,631.4,0z M342.3,36.1h137.3c4,0,7.2,3.2,7.2,7.2s-3.2,7.2-7.2,7.2H342.3
	c-4,0-7.2-3.2-7.2-7.2S338.3,36.1,342.3,36.1z M465.8,228c0.4,23.5-14.7,54.2-43.7,65.7c-6.4,2.5-13,3.8-19.8,3.7
	c-1.3,0-1.8-0.4-1.9-1.8c-1.1-13,2.4-25,8.7-36.1c10.7-19.1,27-31,48.2-36.1c2.6-0.6,5.3-0.8,8.3-1.3
	C465.6,224.2,465.8,226.1,465.8,228z M530.2,468.9c-8.1,21.9-20.4,41.3-35.3,59.2c-2.9,3.4-6.2,6.6-9.7,9.5
	c-6.9,5.8-14.7,9.3-23.9,9.6c-6.8,0.3-13.4-1-19.7-3.6c-4.6-1.9-9.1-4-13.8-5.7c-15.1-5.4-30.1-4.7-44.9,1.1
	c-5.4,2.1-10.6,4.5-16.1,6.3c-6.3,2.1-12.9,3-19.5,1.7c-5.8-1.1-10.9-3.8-15.6-7.3c-5.9-4.3-10.8-9.6-15.4-15.2
	c-21.8-26.6-36.5-56.7-43.6-90.4c-3-14.5-4.5-29.1-3.6-44c1.1-17.8,5.2-34.7,14.7-49.9c11.9-19.2,28.7-31.7,50.9-36.9
	c13.3-3.1,26.2-1.9,38.9,3c6.7,2.6,13.4,5.1,20.1,7.6c6.2,2.3,12.3,2.3,18.5,0c6.8-2.6,13.7-5.2,20.6-7.7c7-2.6,14.2-4.6,21.6-5.3
	c11.2-0.9,22.1,0.5,32.7,4.1c15,5,27.3,13.9,36.5,26.9c0.3,0.4,0.5,0.7,0.7,1c-23.3,16.2-36.6,37.7-34.6,66.7
	c1.9,29,17.6,48.7,43.2,61.4C532,463.7,531.1,466.3,530.2,468.9z"/>
<path class="st1" d="M632.8,0H187.7c-15.1,0-27.4,12.2-27.4,27.3V68h501.4V28.9C661.7,12.9,648.8,0,632.8,0z"/>
<path class="st1" d="M661.7,732.1H160.3v40.2c0,15.4,12.5,27.8,27.8,27.8h445.2c15.7,0,28.4-12.7,28.4-28.3V732.1z"/>
<path class="st2" d="M500.5,41h-179c-3.9,0-7-3.1-7-7v0c0-3.9,3.1-7,7-7h179c3.9,0,7,3.1,7,7v0C507.5,37.9,504.4,41,500.5,41z"/>
<path class="st2" d="M411,781L411,781c-8.3,0-14.9-6.7-14.9-14.9l0,0c0-8.3,6.7-14.9,14.9-14.9h0c8.3,0,14.9,6.7,14.9,14.9l0,0
	C425.9,774.4,419.3,781,411,781z"/>
</svg>
